<?xml version="1.0"?><svg version="1.1" id="圖層_1" xmlns="http://www.w3.org/2000/svg" x="0" y="0" viewBox="0 0 100 100" xml:space="preserve"><g><path d="M68.627 71.773l-52.155 13.2V20.454L67.329 7.582a2.645 2.645 0 0 1 3.294 2.564v59.062a2.644 2.644 0 0 1-1.996 2.565z" fill="#f47e60"/><path d="M68.26 10.512l12.904 7.527-51.788 13.168c-6.767.099-11.069-2.41-12.904-7.527L68.26 10.512z" fill="#e0e0e0"/><path d="M81.531 79.3L29.376 92.5V27.981l50.857-12.872a2.645 2.645 0 0 1 3.294 2.564v59.062a2.646 2.646 0 0 1-1.996 2.565z" fill="#e15b64"/><path d="M16.473 20.454v64.519c1.86 6.274 7.015 7.467 12.904 7.527V27.981c-6.94.007-11.241-2.503-12.904-7.527z" fill="#f8b26a"/></g><g><path d="M71.452 49.602c0 8.284-6.716 16.86-15 19.155-8.284 2.295-15-2.56-15-10.845s6.716-16.86 15-19.155 15 2.561 15 10.845z" fill="none" stroke="#fff" stroke-width="3.875" stroke-linecap="round" stroke-linejoin="round" stroke-miterlimit="10"/><path d="M64.156 49.341L59.3 50.686c-.084.023-.138-.053-.097-.138l.128-.266 1.506-3.127a.287.287 0 0 1 .176-.152l1.132-.314 2.011-.557c.151-.042.248-.228.18-.344a2.857 2.857 0 0 0-.8-.875c-.763-.546-1.811-.725-2.97-.404-2.331.646-4.222 3.06-4.222 5.391 0 .359.05.691.134 1l-4.8 6.13-2.713 3.464c-.559.713-.559 1.619 0 2.023l.502.363.502.363c.559.404 1.464.153 2.023-.56l2.334-2.981 5.164-6.594a4.26 4.26 0 0 0 1.077-.154c1.649-.457 3.076-1.797 3.771-3.368.066-.154-.031-.287-.182-.245z" fill="#fff"/></g><metadata xmlns:d="https://loading.io/stock/">
<d:name>manual</d:name>
<d:tags>instruction,operation,config,wrench,workbook,documentation,handbook,manual,books</d:tags>
<d:license>by</d:license>
<d:slug>t1baxi</d:slug>
</metadata></svg>