<?xml version="1.0" encoding="utf-8"?>
<!-- Generator: Adobe Illustrator 28.0.0, SVG Export Plug-In . SVG Version: 6.00 Build 0)  -->
<svg version="1.1" id="Layer_1" xmlns="http://www.w3.org/2000/svg" xmlns:xlink="http://www.w3.org/1999/xlink" x="0px" y="0px"
	 viewBox="0 0 100 100" enable-background="new 0 0 100 100" xml:space="preserve">
<g>
	
		<polygon fill="#F15A24" stroke="#000000" stroke-width="3" stroke-linecap="round" stroke-linejoin="round" stroke-miterlimit="10" points="
		10,79.9 44.1,61 44.1,10.5 10,29.3 	"/>
	
		<polygon fill="#F15A24" stroke="#000000" stroke-width="3" stroke-linecap="round" stroke-linejoin="round" stroke-miterlimit="10" points="
		90,70.5 44.1,61 44.1,10.5 90,19.9 	"/>
	
		<polygon fill="#F15A24" stroke="#000000" stroke-width="3" stroke-linecap="round" stroke-linejoin="round" stroke-miterlimit="10" points="
		44.1,61.3 90,70.7 55.9,89.5 10,80.1 	"/>
</g>
<g>
	
		<polygon fill="#FBB03B" stroke="#000000" stroke-width="3" stroke-linecap="round" stroke-linejoin="round" stroke-miterlimit="10" points="
		44.1,10.7 90,20.1 55.9,39 10,29.5 	"/>
	
		<polygon fill="#FCEE21" stroke="#000000" stroke-width="3" stroke-linecap="round" stroke-linejoin="round" stroke-miterlimit="10" points="
		21.7,22.8 67.6,32.5 79.4,26 33.5,16.3 	"/>
</g>
<g>
	
		<polygon fill="#FBB03B" stroke="#000000" stroke-width="3" stroke-linecap="round" stroke-linejoin="round" stroke-miterlimit="10" points="
		55.9,89.5 10,80.1 10,29.5 55.9,39 	"/>
	<g>
		
			<polygon fill="#F7931E" stroke="#000000" stroke-width="3" stroke-linecap="round" stroke-linejoin="round" stroke-miterlimit="10" points="
			55.9,89.5 90,70.7 90,20.1 55.9,39 		"/>
		
			<polygon fill="#FCEE21" stroke="#000000" stroke-width="3" stroke-linecap="round" stroke-linejoin="round" stroke-miterlimit="10" points="
			79.4,26 79.4,37.6 67.6,44.1 67.6,32.5 		"/>
		
			<polygon fill="#FCEE21" stroke="#000000" stroke-width="3" stroke-linecap="round" stroke-linejoin="round" stroke-miterlimit="10" points="
			79.4,64 79.4,76.6 67.6,83.1 67.6,70.5 		"/>
	</g>
	
		<polygon fill="#F2E5C7" stroke="#000000" stroke-width="3" stroke-linecap="round" stroke-linejoin="round" stroke-miterlimit="10" points="
		25.5,43.2 38.2,46.6 33.6,56.5 44,59.2 29.7,76.5 30,63.4 19,60.4 	"/>
</g>
</svg>
