<?xml version="1.0"?>
<svg version="1.1" id="圖層_1" xmlns="http://www.w3.org/2000/svg" x="0" y="0" viewBox="0 0 100 100" xml:space="preserve"><path d="M36.068 64.372l9.503-16.46a5.316 5.316 0 0 1 6.33-2.374l18.994 6.521a7.339 7.339 0 0 0 8.741-3.277l.897-1.554a5.973 5.973 0 0 0-2.186-8.159L46.453 20.656" fill="none" stroke="#333" stroke-width="3.5" stroke-linecap="round" stroke-linejoin="round" stroke-miterlimit="10"/><path d="M68.752 43.408L37.881 25.584a3.576 3.576 0 0 1-1.309-4.886l4.843-8.389A3.576 3.576 0 0 1 46.301 11l30.871 17.824a3.576 3.576 0 0 1 1.309 4.886l-4.843 8.389a3.576 3.576 0 0 1-4.886 1.309z" fill="#e0e0e0" stroke="#333" stroke-width="3.5" stroke-linecap="round" stroke-linejoin="round" stroke-miterlimit="10"/><path d="M25.726 89.189l-5.98-3.453a2.161 2.161 0 0 1-.791-2.951l18.889-32.717a2.161 2.161 0 0 1 2.951-.791l5.98 3.453a2.161 2.161 0 0 1 .791 2.951L28.678 88.398a2.16 2.16 0 0 1-2.952.791z" fill="#a0c8d7" stroke="#333" stroke-width="3.5" stroke-linecap="round" stroke-linejoin="round" stroke-miterlimit="10"/><path d="M38.955 16.571l-2.383 4.128a3.576 3.576 0 0 0 1.309 4.886l30.871 17.824a3.576 3.576 0 0 0 4.886-1.309l2.383-4.128" opacity=".2" stroke="#000" stroke-width="3.5" stroke-linecap="round" stroke-linejoin="round" stroke-miterlimit="10"/><path d="M22.736 87.463l2.99 1.726a2.16 2.16 0 0 0 2.951-.791l18.889-32.717a2.16 2.16 0 0 0-.791-2.951l-2.99-1.726" opacity=".2" stroke="#000" stroke-width="3.5" stroke-linecap="round" stroke-linejoin="round" stroke-miterlimit="10"/><path fill="none" stroke="#fff" stroke-width="3.5" stroke-linecap="round" stroke-linejoin="round" stroke-miterlimit="10" d="M45.891 16.451l9.165 5.291"/><path fill="none" stroke="#fff" stroke-width="3.5" stroke-linecap="round" stroke-linejoin="round" stroke-miterlimit="10" d="M61.705 25.581l-1.669-.964"/><metadata xmlns:d="https://loading.io/stock/"><d:name>roll brush</d:name><d:tags>roll brush,style,paint,lead,oil,color,draw,hand tool</d:tags><d:license>by</d:license><d:slug>xugw1k</d:slug></metadata></svg>